<svg
  width="1440"
  height="900"
  viewBox="0 0 1440 900"
  fill="none"
  opacity=".5"
  xmlns="http://www.w3.org/2000/svg">
  <rect width="100%" height="100%" fill="#0b0f19"/>

  <path style="mix-blend-mode:overlay"
        d="M1303.2 -126.611C1254.65 -35.5314 1188.63 57.9066 1088.78 84.0246C1011.42 104.257 929.952 79.4885 849.996 80.9286C787.86 82.0626 726.084 99.4866 672.516 131.005C641.898 149.023 613.62 171.685 580.32 184.087C528.57 203.365 470.934 195.661 416.97 183.979C356.508 170.893 297.072 153.109 239.346 130.843C200.556 115.885 160.866 98.5866 119.34 100.729C76.6262 102.925 37.8542 125.443 -3.54578 136.189C-73.2598 154.279 -151.272 136.621 -206.406 90.2706C-262.782 234.343 -206.028 402.643 -256.428 548.911C-217.134 492.877 -177.48 436.393 -127.71 389.412C-77.9397 342.414 -16.7218 304.993 50.9762 294.823C116.172 285.031 182.25 300.907 245.826 318.331C382.734 355.861 519.426 401.526 661.284 407.07C704.664 408.763 757.368 400.734 774.216 360.72C780.912 344.79 780.354 326.305 788.526 311.077C798.876 291.763 820.782 281.989 841.572 275.058C900.414 255.457 963.18 247.735 1025.03 252.505C1087.42 257.311 1148.27 274.591 1210.57 280.495C1377.58 296.281 1550.43 223.579 1655.95 93.1865C1673.41 71.6045 1689.84 46.1526 1687.9 18.4686C1685 -23.0754 1643.51 -49.9854 1605.38 -66.7434C1521.88 -103.481 1431.56 -124.685 1340.42 -128.951"
        fill="url(#paint0_radial_3_3331)"/>
  <path style="mix-blend-mode:overlay"
        d="M-104.958 505.836C-77.7603 453.834 -20.2863 423.18 37.6016 413.586C95.5076 403.992 154.692 412.434 212.76 420.858C351.72 441.036 490.662 461.196 629.622 481.374C683.586 489.204 738.252 497.052 792.432 490.968C846.612 484.884 901.152 463.176 935.874 421.146C948.366 406.026 958.626 388.098 975.654 378.396C1002.31 363.204 1035.54 373.032 1064.99 381.636C1223.32 427.95 1394.87 427.968 1553.22 381.708C1586.02 372.132 1622.14 360.756 1653.16 375.12C1680.1 387.594 1695.42 416.394 1705.03 444.492C1719.02 485.298 1725.07 528.804 1722.76 571.86C1665.76 533.358 1596.55 518.382 1529.23 504.198C1441.84 485.784 1352.99 467.262 1263.94 474.102C1215.7 477.81 1167.71 488.952 1119.46 485.442C1080.02 482.58 1040.56 469.962 1001.65 477C963.63 483.876 931.68 508.5 900.18 530.856C830.196 580.482 743.544 623.79 661.428 598.896C614.178 584.568 575.262 549.162 527.58 536.382C479.502 523.494 428.634 535.104 380.232 546.696C312.372 562.95 244.512 579.204 176.652 595.458C137.682 604.782 97.0016 614.142 57.9957 604.962C15.7137 595.008 -22.3563 563.742 -65.6103 567.612C-85.9863 569.43 -110.088 577.98 -124.38 563.328C-138.51 548.838 -129.618 524.664 -119.106 507.366C-95.8323 469.026 -67.8423 433.548 -35.9823 401.976"
        fill="url(#paint1_radial_3_3331)"/>
  <path style="mix-blend-mode:overlay"
        d="M-57.6724 741.978C79.0556 756.756 216.792 723.42 345.672 675.45C377.604 663.57 412.164 650.592 444.816 660.294C484.2 672.012 508.446 719.838 494.604 758.52C488.988 774.216 479.124 794.088 491.669 805.086C496.674 809.478 503.747 810.396 510.372 810.882C591.551 816.75 670.823 783.126 739.242 739.044C807.641 694.962 868.589 640.08 936.935 595.908C959.381 581.4 985.103 567.576 1011.47 571.986C1055.66 579.366 1076.54 631.818 1115.78 653.418C1145.52 669.798 1182.58 666.324 1214.6 655.038C1246.63 643.752 1275.68 625.428 1306.96 612.234C1355.85 591.624 1410.1 583.938 1462.79 590.13C1501.31 594.666 1541.66 608.472 1563.95 640.206C1584.36 669.276 1585.64 707.382 1583.6 742.842C1580.2 802.224 1569.58 861.192 1552.07 918.036C1564.72 898.794 1547.89 873.882 1530.54 858.744C1516.1 846.144 1500.5 834.894 1484.03 825.084C1418.15 785.826 1338.8 769.626 1262.79 779.418C1226.56 784.098 1191.28 795.996 1156.64 806.814C1115.86 819.558 1073.9 806.886 1033.49 798.912C989.261 790.182 946.025 786.96 901.853 797.112C824.579 814.86 757.404 858.6 682.218 883.53C623.142 903.132 541.313 908.64 485.388 875.664C466.596 864.576 450.63 851.562 441.918 831.006C434.124 812.628 435.384 792.36 427.716 773.406C419.166 752.292 407.268 742.77 383.706 743.418C359.496 744.084 339.246 751.986 318.204 762.912C298.206 773.298 270.144 772.434 247.59 780.876C190.854 802.116 134.118 823.356 77.3816 844.596C46.7636 856.062 12.3836 867.492 -17.6404 854.568C-45.0544 842.76 -61.2724 811.98 -61.2184 782.136C-61.1644 752.292 -47.0164 723.852 -27.6484 701.136"
        fill="url(#paint2_radial_3_3331)"/>
  <defs>
    <radialGradient
      id="paint0_radial_3_3331"
      cx="0"
      cy="0"
      r="1"
      gradientUnits="userSpaceOnUse"
      gradientTransform="translate(715.824 209.935) scale(728.046 728.046)">
      <stop offset="0.08" stop-color="#F128C5"/>
      <stop offset="1" stop-color="#C11BB9"/>
    </radialGradient>
    <radialGradient id="paint1_radial_3_3331" cx="0" cy="0" r="1" gradientUnits="userSpaceOnUse"
                    gradientTransform="translate(795.78 488.538) scale(661.302 661.302)">
      <stop offset="0.08" stop-color="#F128C5"/>
      <stop offset="1" stop-color="#C11BB9"/>
    </radialGradient>
    <radialGradient id="paint2_radial_3_3331" cx="0" cy="0" r="1" gradientUnits="userSpaceOnUse"
                    gradientTransform="translate(761.562 744.588) scale(594.558 594.558)">
      <stop offset="0.08" stop-color="#F128C5"/>
      <stop offset="1" stop-color="#C11BB9"/>
    </radialGradient>
  </defs>
</svg>
