<svg width="585" height="535" viewBox="0 0 585 535" fill="none" xmlns="http://www.w3.org/2000/svg">
<path d="M37.6985 414.518L12.2016 453.671L10.048 482.735L13.17 509.437L30.2981 516.829L82.9686 511.264L126.808 503.225L68.6013 467.796L37.6985 414.518Z" stroke="#FFE031" stroke-linecap="round" stroke-linejoin="round"/>
<path d="M126.806 503.225L145.611 507.919" stroke="#FFE031" stroke-linecap="round" stroke-linejoin="round"/>
<path d="M40.2269 418.776C37.4662 419.423 34.691 417.778 34.0262 415.094C33.3613 412.41 35.0524 409.712 37.8131 409.065C40.5738 408.419 43.349 410.063 44.0139 412.747C44.6788 415.431 42.9876 418.13 40.2269 418.776Z" fill="#FFE031"/>
<path d="M125.173 507.315C122.412 507.961 119.637 506.317 118.972 503.633C118.307 500.948 119.999 498.25 122.759 497.603C125.52 496.957 128.295 498.601 128.96 501.286C129.625 503.97 127.934 506.668 125.173 507.315Z" fill="#FFE031"/>
<path d="M19.1823 447.516C17.4622 447.924 15.7278 446.898 15.3086 445.211C14.8894 443.539 15.9446 441.852 17.6791 441.445C19.3991 441.037 21.1336 442.063 21.5528 443.75C21.9719 445.422 20.9168 447.109 19.1823 447.516Z" fill="#FFE031"/>
<path d="M13.1544 511.728C11.4344 512.135 9.69994 511.109 9.28077 509.423C8.86161 507.75 9.91673 506.064 11.6512 505.656C13.3712 505.249 15.1057 506.275 15.5249 507.961C15.9441 509.634 14.8889 511.334 13.1544 511.728Z" fill="#FFE031"/>
<path d="M13.7474 457.537C11.5937 458.042 9.42561 456.764 8.90527 454.656C8.38492 452.562 9.70025 450.453 11.8539 449.947C14.0076 449.442 16.1756 450.72 16.696 452.814C17.2163 454.909 15.901 457.031 13.7474 457.537Z" fill="#FFE031"/>
<path d="M70.2491 473.136C68.0954 473.642 65.9273 472.363 65.407 470.255C64.8866 468.161 66.202 466.053 68.3556 465.547C70.5093 465.041 72.6774 466.32 73.1977 468.428C73.7181 470.522 72.3883 472.63 70.2346 473.136H70.2491Z" fill="#FFE031"/>
<path d="M32.1328 520.694C29.9791 521.2 27.811 519.921 27.2762 517.827C26.7558 515.733 28.0712 513.625 30.2393 513.119C32.3929 512.613 34.561 513.892 35.0814 516C35.6017 518.094 34.2864 520.202 32.1183 520.708L32.1328 520.694Z" fill="#FFE031"/>
<path d="M11.2042 483.831C9.85999 484.154 8.5013 483.339 8.16886 482.032C7.83642 480.725 8.6603 479.404 10.019 479.081C11.3632 478.758 12.7219 479.573 13.0543 480.88C13.3868 482.187 12.5484 483.508 11.2042 483.817V483.831Z" fill="#FFE031"/>
<path d="M48.2213 433.181C46.8771 433.505 45.5184 432.704 45.186 431.383C44.8535 430.076 45.6919 428.755 47.0361 428.445C48.3803 428.122 49.739 428.923 50.0715 430.244C50.4039 431.551 49.5655 432.872 48.2213 433.196V433.181Z" fill="#FFE031"/>
<path d="M89.184 512.599C87.8397 512.908 86.481 512.107 86.1486 510.8C85.8162 509.493 86.64 508.172 87.9987 507.849C89.3429 507.526 90.7016 508.341 91.0341 509.648C91.3665 510.955 90.5426 512.276 89.184 512.599Z" fill="#FFE031"/>
<path d="M144.066 510.238C142.722 510.561 141.363 509.746 141.031 508.439C140.698 507.132 141.537 505.811 142.881 505.488C144.225 505.164 145.584 505.965 145.916 507.287C146.234 508.594 145.41 509.915 144.066 510.238Z" fill="#FFE031"/>
<path d="M23.1855 7.02818L41.4121 82.5814L35.6016 106.023L77.2581 193.578" stroke="#FFE031" stroke-linecap="round" stroke-linejoin="round"/>
<path d="M35.602 106.023L4.23669 152.499" stroke="#FFE031" stroke-linecap="round" stroke-linejoin="round"/>
<path d="M42.3225 105.573C43.2476 109.255 40.935 112.965 37.148 113.865C33.361 114.764 29.5451 112.516 28.6201 108.834C27.695 105.151 30.0077 101.441 33.7946 100.542C37.5816 99.6424 41.3975 101.891 42.3225 105.573Z" fill="#FFE031"/>
<path d="M81.3053 191.246C82.2304 194.928 79.9177 198.638 76.1308 199.537C72.3438 200.437 68.5279 198.188 67.6029 194.506C66.6778 190.824 68.9905 187.114 72.7774 186.214C76.5644 185.315 80.3802 187.563 81.3053 191.246Z" fill="#FFE031"/>
<path d="M28.4035 5.22931C29.3286 8.9114 27.016 12.6216 23.229 13.521C19.442 14.4205 15.6262 12.1719 14.7011 8.48978C13.7761 4.80769 16.0887 1.0975 19.8757 0.198053C23.6626 -0.701389 27.4785 1.54722 28.418 5.22931H28.4035Z" fill="#FFE031"/>
<path d="M45.1853 84.001C45.7346 86.1652 44.3759 88.3436 42.15 88.8636C39.924 89.3976 37.6837 88.0766 37.1489 85.9123C36.5996 83.748 37.9583 81.5697 40.1842 81.0497C42.3957 80.5156 44.6505 81.8507 45.1853 84.001Z" fill="#FFE031"/>
<path d="M10.0185 148.803C10.6833 151.459 9.02115 154.129 6.28934 154.776C3.57198 155.422 0.811259 153.806 0.146373 151.15C-0.518513 148.508 1.14368 145.823 3.8755 145.177C6.59286 144.531 9.35358 146.147 10.0185 148.803Z" fill="#FFE031"/>
<path d="M521.937 409.009L495.009 455.414L579.681 445.534L521.937 409.009Z" stroke="#FFE031" stroke-linecap="round" stroke-linejoin="round"/>
<path d="M495.009 455.414L525.449 512.416L529.149 533.806" stroke="#FFE031" stroke-linecap="round" stroke-linejoin="round"/>
<path d="M579.682 445.534L578.439 497.744" stroke="#FFE031" stroke-linecap="round" stroke-linejoin="round"/>
<path d="M527.056 405.86C528.212 409.008 526.536 412.466 523.298 413.59C520.06 414.714 516.505 413.084 515.348 409.936C514.192 406.788 515.869 403.331 519.106 402.206C522.344 401.082 525.9 402.712 527.056 405.86Z" fill="#FFE031"/>
<path d="M499.144 454.262C500.3 457.41 498.623 460.867 495.386 461.991C492.148 463.116 488.592 461.485 487.436 458.337C486.28 455.189 487.956 451.732 491.194 450.608C494.432 449.483 497.987 451.114 499.144 454.262Z" fill="#FFE031"/>
<path d="M584.062 442.991C585.06 445.675 583.614 448.64 580.854 449.596C578.093 450.566 575.043 449.16 574.046 446.476C573.048 443.792 574.494 440.826 577.254 439.857C580.015 438.901 583.065 440.292 584.048 442.977L584.062 442.991Z" fill="#FFE031"/>
<path d="M584.684 492.46C585.682 495.144 584.236 498.11 581.475 499.065C578.715 500.035 575.665 498.63 574.682 495.945C573.699 493.261 575.13 490.296 577.891 489.34C580.652 488.37 583.701 489.776 584.684 492.46Z" fill="#FFE031"/>
<path d="M531.667 509.957C532.664 512.641 531.219 515.606 528.458 516.562C525.697 517.532 522.647 516.126 521.664 513.442C520.667 510.758 522.112 507.793 524.873 506.837C527.634 505.867 530.684 507.272 531.667 509.957Z" fill="#FFE031"/>
<path d="M533.326 529.463C533.991 531.276 533.023 533.272 531.158 533.918C529.294 534.565 527.241 533.623 526.562 531.81C525.897 529.997 526.865 528.002 528.73 527.355C530.594 526.709 532.647 527.65 533.326 529.463Z" fill="#FFE031"/>
<path d="M522.774 49.9347L550.786 46.3229L522.702 102.454L519.797 118.728L525.65 179.707L532.632 191.934L570.328 214.617L553.836 258.156L531.172 273.095L510.604 245.057L499.677 252.759L496.771 269.033" stroke="#FFE031" stroke-linecap="round" stroke-linejoin="round"/>
<path d="M550.787 46.3229L569.808 71.423" stroke="#FFE031" stroke-linecap="round" stroke-linejoin="round"/>
<path d="M499.836 264.367C501.859 264.691 503.218 266.56 502.871 268.513C502.524 270.467 500.616 271.802 498.593 271.465C496.569 271.127 495.211 269.272 495.557 267.305C495.904 265.337 497.812 264.016 499.821 264.353L499.836 264.367Z" fill="#FFE031"/>
<path d="M513.105 243.666C514.709 243.933 515.807 245.409 515.533 246.983C515.258 248.543 513.726 249.611 512.122 249.344C510.503 249.077 509.419 247.601 509.693 246.027C509.968 244.467 511.5 243.399 513.105 243.666Z" fill="#FFE031"/>
<path d="M571.355 212.832C572.959 213.099 574.058 214.575 573.783 216.149C573.508 217.709 571.991 218.777 570.372 218.51C568.753 218.243 567.669 216.767 567.944 215.193C568.218 213.619 569.75 212.579 571.355 212.832Z" fill="#FFE031"/>
<path d="M536.232 191.836C537.851 192.103 538.935 193.578 538.661 195.152C538.386 196.726 536.868 197.78 535.249 197.513C533.645 197.246 532.547 195.771 532.821 194.197C533.096 192.623 534.613 191.569 536.232 191.836Z" fill="#FFE031"/>
<path d="M527.416 91.0554C529.02 91.3225 530.119 92.7981 529.844 94.3721C529.57 95.9461 528.052 97.0002 526.433 96.7331C524.829 96.4661 523.745 94.9905 524.005 93.4165C524.279 91.8565 525.797 90.7884 527.416 91.0554Z" fill="#FFE031"/>
<path d="M552.983 42.5284C555.021 42.8657 556.394 44.7489 556.061 46.7305C555.715 48.7261 553.778 50.0612 551.74 49.7239C549.687 49.3866 548.314 47.5034 548.661 45.5218C549.008 43.5403 550.945 42.1911 552.983 42.5284Z" fill="#FFE031"/>
<path d="M521.098 115.228C522.702 115.495 523.786 116.971 523.526 118.545C523.252 120.105 521.734 121.173 520.115 120.906C518.496 120.639 517.426 119.163 517.687 117.589C517.947 116.015 519.479 114.961 521.098 115.228Z" fill="#FFE031"/>
<path d="M531.966 269.792C533.571 270.059 534.669 271.549 534.395 273.109C534.12 274.683 532.588 275.737 530.984 275.47C529.379 275.203 528.281 273.727 528.555 272.153C528.83 270.579 530.348 269.525 531.966 269.792Z" fill="#FFE031"/>
<path d="M523.411 46.8425C525.03 47.1095 526.114 48.5851 525.84 50.1591C525.565 51.7332 524.047 52.7872 522.429 52.5202C520.81 52.2532 519.726 50.7775 520 49.2035C520.275 47.6435 521.793 46.5754 523.411 46.8425Z" fill="#FFE031"/>
<path d="M569.157 66.2088C570.761 66.4759 571.86 67.9515 571.585 69.5255C571.31 71.0996 569.793 72.1536 568.174 71.8866C566.57 71.6195 565.485 70.1439 565.746 68.5699C566.02 66.9958 567.538 65.9418 569.157 66.2088Z" fill="#FFE031"/>
<path d="M500.631 245.788C503.421 246.252 505.314 248.823 504.837 251.55C504.36 254.276 501.715 256.103 498.925 255.64C496.121 255.176 494.242 252.604 494.719 249.892C495.196 247.165 497.841 245.338 500.645 245.802L500.631 245.788Z" fill="#FFE031"/>
<path d="M528.615 179.581C531.404 180.045 533.298 182.616 532.821 185.343C532.344 188.069 529.699 189.896 526.895 189.433C524.105 188.969 522.212 186.397 522.689 183.685C523.166 180.958 525.811 179.131 528.615 179.595V179.581Z" fill="#FFE031"/>
<path d="M521.012 100.683C523.817 101.146 525.696 103.718 525.219 106.445C524.742 109.171 522.097 110.998 519.292 110.534C516.503 110.071 514.609 107.499 515.086 104.786C515.563 102.06 518.208 100.233 520.998 100.697L521.012 100.683Z" fill="#FFE031"/>
<path d="M554.849 252.955C557.653 253.419 559.532 255.991 559.055 258.717C558.578 261.444 555.933 263.271 553.129 262.807C550.339 262.357 548.445 259.771 548.922 257.059C549.399 254.333 552.044 252.506 554.849 252.969V252.955Z" fill="#FFE031"/>
</svg>
