<svg
  width="724"
  height="733"
  viewBox="0 0 724 733"
  fill="none"
  xmlns="http://www.w3.org/2000/svg">

  <!--  group apply drop shadow -->
  <g filter="url(#filter0_d_1_6840)">
    <path
      d="M297.308 694.722C207.654 668.823 217.978 611.457 165.164 551.592C130.576 474.978 19.2445 503.157 26.3227 458.531C34.2965 408.259 114.529 418.803 165.164 440.571C215.8 462.34 241.39 434.585 241.39 410.639C256.09 336.625 249.452 293.088 237.447 207.101C226.036 125.367 227.517 114.144 237.447 85.1977C247.377 56.2513 286.979 44.7671 297.308 90.1973C302.865 114.639 307.669 183.478 318.7 236.489C328.172 282.01 330.94 316.953 332.855 323.375C337.001 337.276 348.748 317.742 350.229 311.404C350.919 308.454 361.376 255.299 367.157 200.026C373.798 136.52 379.296 66.3338 382.946 45.4677C389.774 6.44057 450.007 20.4474 453.257 53.631C454.987 71.3093 458.022 137.054 447.381 200.026C437.241 260.028 436.92 299.758 437.394 306.693C437.34 309.002 438.424 314.595 439.572 316.489C440.72 318.384 444.748 315.747 446.65 316.489C448.552 317.232 452.358 303.583 454.272 302.884C456.187 302.185 460.714 285.704 461.895 283.836C464.051 280.601 479.911 261.765 493.474 207.645C501.641 175.062 520.268 130.284 526.687 116.216C543.77 78.7824 604.495 70.2721 601.825 105.876C600.634 121.751 591.48 187.509 566.434 233.768C532.677 287.646 521.617 320.618 521.787 330.095C534.854 326.83 537.577 319.21 549.011 311.591C569.701 287.646 572.968 284.925 595.291 268.054C624.148 240.299 626.327 237.577 655.728 217.441C705.82 205.468 703.098 231.047 689.486 254.992C682.952 278.394 643.75 323.564 609.448 356.217C568.068 386.694 551.604 416.926 544.111 441.116C530.587 484.772 504.004 557.565 476.602 616.355C449.2 675.144 393.135 722.405 297.308 694.722Z"
      stroke="#F0D135" stroke-width="4"
      stroke-linecap="round"
      stroke-dasharray="8 8"
      shape-rendering="crispEdges"/>
  </g>

  <!--  Khai bao tai nguyen -->
  <defs>
    <filter
      id="filter0_d_1_6840"
      x="0"
      y="0"
      width="723.992"
      height="732.799"
      filterUnits="userSpaceOnUse"
      color-interpolation-filters="sRGB">

      <feFlood flood-opacity="0" result="BackgroundImageFix"/>

      <feColorMatrix
        in="SourceAlpha"
        type="matrix"
        values="0 0 0 0 0 0 0 0 0 0 0 0 0 0 0 0 0 0 127 0"
        result="hardAlpha"/>

      <feOffset dy="4"/>

      <feGaussianBlur stdDeviation="12"/>

      <feComposite in2="hardAlpha" operator="out"/>

      <feColorMatrix
        type="matrix"
        values="0 0 0 0 0.941176 0 0 0 0 0.819608 0 0 0 0 0.207843 0 0 0 1 0"/>

      <feBlend
        mode="normal"
        in2="BackgroundImageFix"
        result="effect1_dropShadow_1_6840"/>

      <feBlend
        mode="normal"
        in="SourceGraphic"
        in2="effect1_dropShadow_1_6840"
        result="shape"/>
    </filter>
  </defs>
</svg>
