<svg width="1440" height="900" viewBox="0 0 1440 900" fill="none" xmlns="http://www.w3.org/2000/svg">
<path d="M1440 900H0V0H1440V900ZM773.846 58.1572C773.295 58.1104 772.812 58.5182 772.765 59.0684C772.764 59.0723 772.764 59.0762 772.764 59.0801C770.691 58.9519 768.632 58.9767 766.616 59.1631C766.616 59.1586 766.617 59.1539 766.616 59.1494C766.55 58.6011 766.053 58.2098 765.505 58.2754C762.682 58.6137 759.942 59.2689 757.361 60.2686C756.847 60.4682 756.591 61.0476 756.79 61.5625C756.792 61.5681 756.795 61.5736 756.797 61.5791C754.905 62.3883 753.115 63.3949 751.462 64.6104C751.458 64.605 751.454 64.5991 751.45 64.5938C751.106 64.1623 750.477 64.0914 750.045 64.4355C747.892 66.1536 745.983 68.2339 744.395 70.6953C744.095 71.1594 744.228 71.7787 744.692 72.0781C744.698 72.0819 744.705 72.0842 744.711 72.0879C743.71 73.7765 742.858 75.6406 742.179 77.6885C742.173 77.6867 742.168 77.6843 742.162 77.6826C741.633 77.5253 741.077 77.8265 740.919 78.3555C740.532 79.654 740.211 81.018 739.961 82.4482C739.762 83.5875 739.558 84.8697 739.349 86.2842C739.268 86.8304 739.645 87.339 740.191 87.4199C740.193 87.4201 740.194 87.4197 740.195 87.4199C739.948 89.1455 739.693 91.0549 739.432 93.1338H739.43C738.882 93.0661 738.382 93.4559 738.314 94.0039C738.02 96.3825 737.718 98.9683 737.406 101.74C737.345 102.289 737.74 102.783 738.288 102.845C738.084 104.68 737.877 106.594 737.666 108.582H737.665C737.116 108.524 736.624 108.922 736.565 109.471C736.304 111.942 736.039 114.522 735.768 117.2C735.712 117.75 736.112 118.24 736.661 118.296H736.662C736.473 120.166 736.281 122.083 736.088 124.044C735.538 123.99 735.049 124.392 734.995 124.941C734.748 127.454 734.496 130.036 734.241 132.68C734.188 133.229 734.591 133.717 735.141 133.771C734.959 135.653 734.778 137.568 734.593 139.51H734.591C734.041 139.458 733.553 139.86 733.501 140.41C733.26 142.945 733.015 145.528 732.768 148.151C732.716 148.701 733.12 149.188 733.67 149.24H733.671C733.492 151.134 733.312 153.05 733.131 154.984H733.13C732.58 154.933 732.092 155.336 732.04 155.886C731.801 158.433 731.56 161.013 731.315 163.62C731.264 164.169 731.668 164.656 732.217 164.708C732.038 166.612 731.858 168.53 731.677 170.461C731.127 170.41 730.64 170.815 730.589 171.364C730.349 173.92 730.107 176.498 729.862 179.093C729.811 179.642 730.213 180.129 730.762 180.182C730.582 182.087 730.401 184.002 730.219 185.925C729.67 185.874 729.183 186.278 729.131 186.827C728.887 189.394 728.641 191.975 728.394 194.564C728.341 195.113 728.742 195.6 729.291 195.654C729.108 197.564 728.926 199.479 728.74 201.397C728.191 201.345 727.703 201.747 727.649 202.296C727.4 204.869 727.149 207.447 726.896 210.027C726.842 210.576 727.243 211.065 727.791 211.12C727.603 213.034 727.415 214.948 727.225 216.861C726.676 216.807 726.187 217.21 726.132 217.759C725.875 220.338 725.615 222.915 725.354 225.487C725.299 226.036 725.699 226.526 726.248 226.582C726.053 228.5 725.857 230.414 725.66 232.324C725.111 232.268 724.62 232.668 724.563 233.217C724.43 234.505 724.296 235.792 724.162 237.075C724.023 238.41 723.88 239.743 723.735 241.074C723.676 241.623 724.072 242.115 724.62 242.176C724.399 244.186 724.172 246.191 723.94 248.189C723.393 248.127 722.898 248.52 722.834 249.067C722.522 251.744 722.201 254.407 721.873 257.051C721.805 257.598 722.193 258.096 722.74 258.165C722.489 260.18 722.232 262.183 721.973 264.172C721.426 264.102 720.926 264.488 720.854 265.034C720.503 267.719 720.146 270.377 719.785 273.002C719.71 273.548 720.091 274.051 720.636 274.128C720.357 276.147 720.076 278.146 719.793 280.123C719.248 280.046 718.743 280.425 718.664 280.971C718.276 283.671 717.886 286.329 717.496 288.935C717.414 289.48 717.789 289.987 718.334 290.07C718.029 292.096 717.727 294.091 717.424 296.05C716.879 295.966 716.367 296.339 716.282 296.885C715.859 299.605 715.44 302.256 715.025 304.826C714.938 305.371 715.308 305.883 715.852 305.972C715.521 308.015 715.195 310.007 714.874 311.941C714.33 311.851 713.815 312.22 713.725 312.765C713.262 315.537 712.812 318.189 712.378 320.705C712.284 321.249 712.648 321.765 713.191 321.859C712.83 323.947 712.478 325.937 712.144 327.82C711.601 327.725 711.083 328.087 710.986 328.63C710.464 331.552 709.981 334.204 709.546 336.549C709.445 337.091 709.803 337.613 710.346 337.714C709.912 340.04 709.529 342.035 709.214 343.661C708.673 343.557 708.15 343.91 708.044 344.451C707.619 346.62 707.345 347.946 707.256 348.329C707.062 349.157 706.662 350.281 706.089 351.573C705.868 352.073 706.089 352.656 706.582 352.885C705.876 354.367 704.998 355.968 704.016 357.516C703.558 357.22 702.946 357.345 702.642 357.8C701.207 359.944 699.622 361.853 698.093 363.072C697.674 363.406 697.596 364.008 697.906 364.438C696.161 365.578 694.464 365.834 693.049 364.577C693.427 364.236 693.49 363.657 693.18 363.24C692.695 362.589 692.225 361.622 691.813 360.243C691.599 359.525 691.361 358.372 691.093 356.779C691.001 356.237 690.489 355.871 689.946 355.959C689.709 354.473 689.453 352.709 689.173 350.687C689.72 350.611 690.102 350.108 690.027 349.561C689.731 347.397 689.407 344.964 689.049 342.279C688.976 341.732 688.473 341.347 687.926 341.42H687.925C687.701 339.748 687.463 337.984 687.212 336.135H687.214C687.761 336.06 688.144 335.556 688.069 335.009C687.755 332.71 687.419 330.283 687.058 327.737C686.98 327.191 686.474 326.81 685.927 326.888H685.924C685.679 325.178 685.424 323.416 685.156 321.605H685.158C685.704 321.524 686.081 321.015 686 320.469C685.651 318.125 685.281 315.701 684.89 313.203C684.804 312.658 684.293 312.285 683.747 312.37H683.745C683.473 310.647 683.19 308.889 682.896 307.099H682.899C683.444 307.009 683.813 306.493 683.723 305.948C683.333 303.589 682.924 301.173 682.495 298.706C682.4 298.162 681.883 297.798 681.339 297.893H681.338C681.035 296.166 680.72 294.415 680.397 292.64H680.4C680.944 292.54 681.304 292.019 681.204 291.476C680.77 289.108 680.318 286.7 679.847 284.254C679.742 283.712 679.217 283.357 678.675 283.462C678.674 283.462 678.672 283.462 678.671 283.462C678.335 281.733 677.991 279.985 677.636 278.221H677.638C678.179 278.111 678.529 277.583 678.419 277.042C678.177 275.849 677.93 274.647 677.679 273.438C677.403 272.111 677.13 270.773 676.861 269.427C676.753 268.885 676.227 268.533 675.686 268.641C675.287 266.624 674.899 264.588 674.518 262.536C675.059 262.435 675.418 261.915 675.318 261.373C674.826 258.704 674.348 256.007 673.882 253.29C673.789 252.746 673.272 252.38 672.728 252.473C672.382 250.439 672.043 248.394 671.711 246.342C672.255 246.254 672.626 245.742 672.539 245.197C672.106 242.504 671.684 239.797 671.273 237.084C671.191 236.539 670.682 236.163 670.137 236.244C669.829 234.196 669.528 232.145 669.231 230.094C669.776 230.014 670.155 229.509 670.076 228.963C669.687 226.251 669.307 223.538 668.937 220.833C668.862 220.287 668.358 219.903 667.812 219.977C667.531 217.916 667.255 215.86 666.984 213.812C667.531 213.739 667.916 213.237 667.844 212.69C667.485 209.96 667.134 207.244 666.791 204.548C666.721 204.001 666.222 203.613 665.675 203.682C665.413 201.61 665.155 199.552 664.901 197.509C665.449 197.44 665.837 196.942 665.77 196.395C665.429 193.644 665.096 190.923 664.771 188.239C664.704 187.692 664.207 187.301 663.659 187.366C663.407 185.287 663.159 183.231 662.914 181.201C663.462 181.134 663.852 180.638 663.786 180.09C663.452 177.313 663.124 174.586 662.802 171.921C662.735 171.373 662.236 170.982 661.688 171.048C661.433 168.949 661.18 166.89 660.932 164.874C660.933 164.874 660.934 164.874 660.936 164.874C661.484 164.806 661.873 164.307 661.806 163.759C661.459 160.949 661.118 158.225 660.781 155.601C660.711 155.053 660.21 154.666 659.662 154.736H659.659C659.384 152.611 659.112 150.553 658.842 148.57H658.844C659.391 148.495 659.773 147.99 659.698 147.443C659.3 144.557 658.905 141.834 658.511 139.297C658.426 138.751 657.915 138.377 657.369 138.462H657.367C657.019 136.263 656.67 134.213 656.321 132.327C656.323 132.327 656.324 132.327 656.325 132.327C656.868 132.223 657.223 131.7 657.119 131.157C656.842 129.711 656.564 128.365 656.283 127.129C655.999 125.88 655.693 124.672 655.366 123.505C655.217 122.973 654.665 122.662 654.133 122.812C654.13 122.812 654.127 122.813 654.124 122.813C653.594 121.024 653.015 119.337 652.389 117.751C652.392 117.75 652.395 117.749 652.398 117.748C652.908 117.536 653.149 116.95 652.937 116.44C651.912 113.981 650.774 111.761 649.537 109.77C649.246 109.301 648.629 109.157 648.16 109.448C648.156 109.451 648.152 109.453 648.148 109.455C647.116 107.886 646.022 106.476 644.876 105.22C644.88 105.216 644.885 105.213 644.89 105.209C645.285 104.824 645.293 104.19 644.907 103.795C643.032 101.871 641.025 100.319 638.927 99.1172C638.448 98.8429 637.837 99.0091 637.562 99.4883C637.559 99.495 637.555 99.502 637.552 99.5088C635.93 98.668 634.262 98.039 632.565 97.6113C632.567 97.6041 632.57 97.5971 632.571 97.5898C632.683 97.0489 632.335 96.5198 631.794 96.4082C629.281 95.8898 626.723 95.7825 624.182 96.0439C623.632 96.1005 623.233 96.5922 623.289 97.1416C623.29 97.1485 623.291 97.1553 623.292 97.1621C621.547 97.41 619.811 97.8351 618.104 98.4268C618.103 98.4216 618.102 98.4162 618.1 98.4111C617.901 97.8957 617.323 97.638 616.808 97.8359C614.496 98.7247 612.248 99.9041 610.112 101.339C609.654 101.647 609.532 102.268 609.84 102.727C609.843 102.731 609.846 102.734 609.849 102.738C608.418 103.759 607.042 104.9 605.735 106.151C605.732 106.148 605.73 106.145 605.727 106.142C605.334 105.753 604.7 105.755 604.312 106.147C602.574 107.9 600.968 109.846 599.532 111.958C599.222 112.415 599.34 113.036 599.797 113.347C599.8 113.349 599.804 113.351 599.808 113.354C598.854 114.833 597.984 116.392 597.211 118.021C597.207 118.02 597.203 118.017 597.199 118.016C596.695 117.791 596.104 118.018 595.879 118.522C595.373 119.659 594.912 120.828 594.501 122.026C594.071 123.279 593.657 124.501 593.259 125.696C593.084 126.22 593.367 126.786 593.891 126.961C593.892 126.961 593.893 126.961 593.895 126.962C593.28 128.826 592.704 130.629 592.172 132.4C592.171 132.4 592.17 132.4 592.169 132.399C591.639 132.244 591.083 132.547 590.928 133.077C590.186 135.605 589.529 138.083 588.963 140.591C588.841 141.129 589.18 141.665 589.719 141.786C589.721 141.787 589.723 141.787 589.725 141.787C589.328 143.625 588.981 145.483 588.686 147.395C588.684 147.394 588.682 147.394 588.68 147.394C588.133 147.315 587.626 147.695 587.547 148.241C587.192 150.704 586.92 153.26 586.733 155.975C586.696 156.526 587.112 157.003 587.663 157.041C587.665 157.041 587.667 157.041 587.669 157.041C587.56 158.864 587.488 160.762 587.456 162.754C587.454 162.754 587.453 162.754 587.451 162.754C586.899 162.749 586.447 163.192 586.441 163.744C586.418 166.174 586.451 168.741 586.542 171.479C586.56 172.03 587.023 172.462 587.574 172.444C587.576 172.444 587.577 172.443 587.578 172.443C587.647 174.263 587.741 176.16 587.859 178.142L587.856 178.143C587.305 178.177 586.886 178.652 586.921 179.203C587.075 181.641 587.267 184.207 587.497 186.915C587.544 187.465 588.028 187.874 588.578 187.827V187.826C588.738 189.66 588.917 191.56 589.111 193.53L589.109 193.531C588.56 193.586 588.16 194.077 588.215 194.626C588.46 197.065 588.73 199.611 589.027 202.272C589.089 202.821 589.583 203.216 590.132 203.155L590.133 203.154C590.341 204.994 590.562 206.889 590.795 208.842L590.793 208.843C590.245 208.909 589.854 209.407 589.92 209.955C590.216 212.416 590.531 214.968 590.866 217.616C590.936 218.164 591.437 218.552 591.984 218.482C591.985 218.482 591.986 218.482 591.987 218.481C592.221 220.316 592.462 222.196 592.715 224.123L592.714 224.124C592.166 224.196 591.781 224.699 591.853 225.246C592.177 227.714 592.518 230.258 592.873 232.884C592.947 233.431 593.451 233.814 593.998 233.74L594 233.739C594.251 235.584 594.509 237.468 594.774 239.394L594.772 239.395C594.225 239.47 593.843 239.975 593.919 240.522C594.095 241.795 594.274 243.085 594.457 244.393C594.641 245.713 594.824 247.024 595.006 248.324C595.082 248.871 595.587 249.252 596.134 249.176C596.408 251.138 596.678 253.078 596.946 254.996C596.4 255.073 596.019 255.579 596.096 256.125C596.464 258.765 596.826 261.364 597.182 263.926C597.258 264.472 597.761 264.853 598.308 264.778C598.579 266.741 598.847 268.681 599.11 270.6C598.564 270.675 598.182 271.179 598.257 271.726C598.618 274.365 598.972 276.964 599.316 279.526C599.39 280.073 599.892 280.457 600.438 280.385C600.701 282.346 600.957 284.286 601.209 286.205C600.663 286.278 600.279 286.78 600.351 287.326C600.695 289.963 601.029 292.561 601.352 295.125C601.42 295.673 601.919 296.06 602.467 295.992C602.712 297.958 602.952 299.904 603.184 301.831C602.636 301.897 602.244 302.394 602.31 302.942C602.625 305.585 602.926 308.192 603.213 310.768C603.274 311.316 603.767 311.71 604.315 311.65C604.532 313.615 604.74 315.563 604.938 317.494C604.39 317.551 603.99 318.042 604.046 318.591C604.313 321.226 604.564 323.831 604.796 326.412C604.845 326.962 605.331 327.367 605.88 327.318C606.054 329.285 606.217 331.238 606.369 333.179C605.819 333.222 605.408 333.702 605.45 334.252C605.652 336.887 605.833 339.501 605.992 342.098C606.026 342.647 606.498 343.066 607.048 343.034C607.164 344.997 607.267 346.952 607.357 348.899C606.808 348.926 606.383 349.392 606.407 349.942C606.523 352.57 606.616 355.187 606.683 357.797C606.697 358.348 607.154 358.782 607.704 358.77C607.749 360.731 607.781 362.689 607.797 364.646C607.246 364.651 606.803 365.101 606.806 365.652C606.82 368.27 606.809 370.887 606.769 373.51C606.76 374.06 607.198 374.512 607.748 374.523C607.713 376.477 607.662 378.434 607.595 380.396C607.045 380.379 606.584 380.808 606.563 381.358C606.468 383.961 606.344 386.575 606.189 389.205C606.157 389.755 606.576 390.226 607.125 390.261C607.006 392.207 606.871 394.162 606.719 396.129C606.17 396.087 605.69 396.498 605.646 397.047C605.439 399.63 605.203 402.233 604.937 404.862C604.881 405.411 605.281 405.9 605.829 405.957C605.629 407.889 605.411 409.836 605.178 411.798C604.63 411.733 604.133 412.123 604.066 412.671C603.754 415.241 603.414 417.839 603.044 420.47C602.967 421.016 603.347 421.52 603.893 421.599C603.618 423.518 603.328 425.455 603.021 427.411C602.477 427.326 601.966 427.699 601.88 428.243C601.475 430.79 601.043 433.37 600.584 435.986C600.489 436.529 600.851 437.046 601.393 437.144C601.054 439.049 600.7 440.974 600.332 442.92C599.791 442.819 599.27 443.174 599.166 443.715C598.92 445 598.668 446.294 598.409 447.598L598.39 447.694V447.793C598.39 449.106 598.31 450.432 598.151 451.761C598.087 452.304 598.471 452.796 599.011 452.869C598.712 454.886 598.236 456.903 597.583 458.891C597.067 458.714 596.503 458.984 596.318 459.499C595.435 461.96 594.27 464.366 592.824 466.652C592.532 467.115 592.666 467.725 593.122 468.023C591.988 469.714 590.701 471.336 589.261 472.863C588.868 472.484 588.243 472.489 587.857 472.877C586.031 474.713 583.968 476.399 581.667 477.885C581.207 478.182 581.072 478.792 581.361 479.255C579.644 480.303 577.805 481.244 575.843 482.061C575.638 481.554 575.064 481.304 574.554 481.503C572.171 482.429 569.607 483.172 566.861 483.697C566.323 483.8 565.969 484.317 566.065 484.854C564.102 485.189 562.052 485.418 559.915 485.526C559.892 484.979 559.432 484.551 558.884 484.569C556.328 484.654 553.645 484.57 550.835 484.295C550.288 484.241 549.801 484.638 549.743 485.184C547.763 484.961 545.723 484.647 543.625 484.234C543.733 483.697 543.388 483.171 542.85 483.059C540.324 482.53 537.71 481.859 535.009 481.033C534.483 480.872 533.926 481.167 533.762 481.69C531.851 481.085 529.898 480.406 527.904 479.646C528.102 479.133 527.849 478.557 527.336 478.356C526.094 477.871 524.835 477.354 523.56 476.806C522.355 476.288 521.134 475.777 519.897 475.272C519.386 475.064 518.802 475.309 518.594 475.82C518.593 475.821 518.592 475.822 518.592 475.823C516.78 475.094 514.936 474.379 513.064 473.682L513.066 473.68C513.257 473.161 512.991 472.586 512.473 472.396C510.011 471.49 507.502 470.616 504.958 469.775C504.434 469.602 503.869 469.887 503.695 470.411C503.695 470.412 503.694 470.413 503.693 470.414C501.824 469.805 499.937 469.215 498.033 468.646L498.034 468.645C498.19 468.115 497.887 467.558 497.357 467.402C494.824 466.657 492.265 465.948 489.688 465.28C489.154 465.142 488.608 465.464 488.47 465.998L488.469 466C486.556 465.513 484.634 465.049 482.707 464.609L482.708 464.607C482.828 464.068 482.489 463.534 481.95 463.413C479.356 462.834 476.753 462.3 474.149 461.814C473.606 461.713 473.085 462.071 472.983 462.614L472.982 462.616C471.032 462.262 469.082 461.936 467.137 461.64L467.138 461.638C467.218 461.091 466.84 460.582 466.294 460.502C463.648 460.113 461.011 459.78 458.391 459.506C457.841 459.448 457.349 459.847 457.292 460.396C457.292 460.397 457.291 460.398 457.291 460.399C455.308 460.204 453.336 460.044 451.38 459.92C451.38 459.919 451.381 459.917 451.381 459.916C451.412 459.365 450.991 458.892 450.439 458.86C447.751 458.707 445.091 458.624 442.471 458.617C441.918 458.616 441.469 459.062 441.468 459.614C441.468 459.616 441.468 459.617 441.468 459.618C439.464 459.628 437.486 459.683 435.536 459.785C435.536 459.783 435.536 459.781 435.536 459.779C435.502 459.228 435.028 458.809 434.477 458.843C431.763 459.008 429.106 459.267 426.518 459.626C425.971 459.702 425.588 460.207 425.664 460.754C425.664 460.756 425.665 460.758 425.665 460.76C423.678 461.057 421.736 461.415 419.844 461.836C419.843 461.833 419.843 461.831 419.843 461.828C419.716 461.291 419.177 460.958 418.64 461.085C415.964 461.717 413.387 462.48 410.926 463.381C410.407 463.571 410.141 464.146 410.331 464.664C410.332 464.667 410.334 464.671 410.335 464.674C408.457 465.398 406.653 466.205 404.933 467.102C404.931 467.099 404.93 467.096 404.929 467.093C404.663 466.609 404.056 466.431 403.571 466.696C401.161 468.017 398.913 469.518 396.852 471.211C396.425 471.561 396.363 472.192 396.714 472.619C396.717 472.623 396.721 472.626 396.724 472.63C395.228 473.925 393.843 475.328 392.577 476.844C392.573 476.84 392.569 476.836 392.564 476.833C392.131 476.491 391.502 476.566 391.16 476.999C389.507 479.095 388.07 481.392 386.872 483.898C386.634 484.397 386.845 484.994 387.343 485.232C387.347 485.234 387.351 485.235 387.355 485.237C386.574 486.993 385.909 488.852 385.368 490.818C385.364 490.817 385.36 490.816 385.356 490.815C384.821 490.682 384.278 491.007 384.145 491.543C383.823 492.829 383.552 494.157 383.335 495.527C383.103 496.991 382.992 498.387 383 499.72C383.003 500.272 383.454 500.717 384.006 500.714C384.014 500.714 384.022 500.712 384.03 500.712C384.147 502.875 384.602 504.836 385.363 506.627C385.354 506.631 385.344 506.636 385.335 506.641C384.841 506.887 384.64 507.487 384.887 507.981C386.13 510.472 387.948 512.618 390.222 514.501C390.647 514.853 391.278 514.794 391.63 514.369C391.634 514.364 391.637 514.358 391.642 514.353C393.165 515.52 394.89 516.589 396.793 517.584C396.791 517.588 396.789 517.592 396.787 517.596C396.542 518.09 396.744 518.69 397.238 518.936C399.542 520.08 402.071 521.122 404.784 522.096C405.304 522.282 405.876 522.012 406.062 521.492C406.063 521.49 406.063 521.487 406.063 521.485C407.911 522.128 409.845 522.744 411.855 523.344C411.855 523.345 411.855 523.346 411.854 523.348C411.7 523.878 412.004 524.434 412.534 524.589C415.045 525.323 417.666 526.034 420.372 526.74C420.906 526.879 421.452 526.56 421.592 526.025V526.023C423.512 526.521 425.476 527.018 427.477 527.521C427.342 528.057 427.669 528.601 428.204 528.735C430.766 529.379 433.381 530.034 436.037 530.715C436.572 530.852 437.115 530.53 437.253 529.996C439.199 530.498 441.166 531.016 443.148 531.553C443.005 532.084 443.319 532.632 443.851 532.777C446.411 533.478 448.994 534.213 451.586 534.994C452.114 535.153 452.671 534.855 452.831 534.327C454.759 534.916 456.691 535.531 458.624 536.178C458.449 536.7 458.729 537.266 459.251 537.443C461.777 538.302 464.3 539.214 466.809 540.191C467.322 540.391 467.9 540.138 468.102 539.626C469.981 540.372 471.852 541.156 473.711 541.98C473.487 542.483 473.711 543.072 474.213 543.299C476.642 544.397 479.046 545.569 481.413 546.822C481.899 547.079 482.501 546.895 482.761 546.411C484.54 547.372 486.297 548.382 488.03 549.443C487.743 549.911 487.888 550.524 488.354 550.815C490.606 552.224 492.813 553.721 494.964 555.319C495.405 555.647 496.026 555.557 496.356 555.12C497.964 556.341 499.542 557.616 501.082 558.955C500.719 559.368 500.758 559.997 501.169 560.362C503.139 562.114 505.046 563.969 506.881 565.936C507.256 566.338 507.884 566.36 508.288 565.988C509.637 567.469 510.948 569.011 512.214 570.618C511.781 570.956 511.701 571.581 512.036 572.017C513.628 574.088 515.148 576.269 516.588 578.564C516.88 579.03 517.492 579.171 517.959 578.883C518.998 580.583 519.995 582.345 520.944 584.172C520.457 584.423 520.262 585.022 520.51 585.513C521.11 586.7 521.692 587.915 522.253 589.157L522.314 589.294L522.414 589.407C523.278 590.387 524.126 591.366 524.957 592.344C525.314 592.763 525.941 592.815 526.362 592.461C527.61 593.944 528.822 595.425 529.999 596.904C529.568 597.247 529.495 597.874 529.836 598.307C531.451 600.357 533.001 602.403 534.492 604.442C534.817 604.887 535.44 604.984 535.886 604.661C537.021 606.228 538.122 607.791 539.191 609.351C538.737 609.662 538.62 610.281 538.93 610.737C540.394 612.892 541.8 615.04 543.156 617.179C543.451 617.644 544.066 617.781 544.532 617.488C545.564 619.129 546.568 620.764 547.545 622.394C547.072 622.677 546.917 623.29 547.199 623.764C548.533 626.004 549.82 628.233 551.069 630.448C551.34 630.928 551.947 631.098 552.428 630.829C553.372 632.513 554.294 634.189 555.2 635.855C554.716 636.119 554.538 636.725 554.8 637.21C556.038 639.5 557.247 641.773 558.437 644.028C558.694 644.516 559.297 644.703 559.785 644.446C560.685 646.156 561.576 647.853 562.46 649.539V649.54C561.971 649.796 561.782 650.401 562.038 650.89C563.247 653.196 564.449 655.482 565.654 657.743C565.914 658.231 566.52 658.415 567.008 658.155L567.009 658.154C567.917 659.851 568.827 661.533 569.746 663.2L569.744 663.202C569.261 663.47 569.088 664.079 569.355 664.562C570.619 666.839 571.901 669.09 573.214 671.311C573.495 671.786 574.109 671.943 574.584 671.662L574.586 671.66C575.57 673.308 576.572 674.938 577.599 676.549C577.598 676.549 577.597 676.55 577.596 676.551C577.132 676.85 576.999 677.469 577.298 677.933C578.706 680.116 580.16 682.266 581.675 684.379C581.997 684.828 582.622 684.93 583.07 684.608C583.071 684.608 583.071 684.606 583.072 684.605C584.196 686.15 585.355 687.673 586.552 689.176C586.55 689.177 586.549 689.179 586.548 689.18C586.119 689.527 586.052 690.157 586.399 690.586C588.025 692.594 589.723 694.563 591.507 696.492C591.882 696.898 592.515 696.922 592.921 696.547C592.922 696.545 592.923 696.543 592.925 696.542C594.224 697.922 595.568 699.28 596.964 700.615C596.962 700.617 596.961 700.618 596.959 700.62C596.581 701.023 596.601 701.655 597.003 702.033C598.872 703.789 600.831 705.506 602.891 707.181C603.319 707.529 603.949 707.464 604.298 707.036C604.299 707.035 604.299 707.033 604.3 707.032C605.774 708.209 607.301 709.363 608.883 710.496C608.882 710.498 608.881 710.499 608.88 710.501C608.562 710.953 608.671 711.576 609.123 711.894C611.199 713.354 613.37 714.777 615.643 716.161C616.114 716.448 616.729 716.299 617.017 715.827C617.018 715.826 617.018 715.824 617.019 715.822C618.629 716.785 620.292 717.727 622.009 718.651C622.008 718.653 622.007 718.655 622.006 718.657C621.748 719.146 621.935 719.751 622.423 720.009C624.661 721.192 626.99 722.341 629.415 723.457C629.917 723.688 630.51 723.467 630.741 722.966C630.742 722.965 630.742 722.963 630.742 722.962C632.452 723.734 634.209 724.491 636.018 725.229C636.017 725.231 636.017 725.232 636.017 725.233C635.811 725.746 636.06 726.328 636.572 726.534C638.916 727.475 641.343 728.388 643.857 729.272C644.378 729.456 644.95 729.181 645.133 728.66V728.657C646.905 729.27 648.722 729.866 650.584 730.45C650.583 730.452 650.583 730.453 650.583 730.455C650.42 730.983 650.716 731.543 651.244 731.706C652.486 732.089 653.748 732.466 655.03 732.836C656.295 733.201 657.553 733.554 658.804 733.894C659.337 734.038 659.887 733.723 660.031 733.19C660.032 733.189 660.031 733.188 660.031 733.187C661.893 733.683 663.739 734.15 665.57 734.59C665.57 734.591 665.57 734.593 665.569 734.595C665.443 735.132 665.776 735.671 666.313 735.798C668.866 736.399 671.39 736.945 673.884 737.438C674.425 737.545 674.951 737.193 675.059 736.651C675.059 736.65 675.058 736.649 675.059 736.647C676.95 737.012 678.824 737.344 680.682 737.647C680.681 737.649 680.681 737.651 680.681 737.653C680.595 738.199 680.967 738.711 681.513 738.797C684.107 739.207 686.67 739.557 689.199 739.851C689.748 739.914 690.244 739.521 690.308 738.973C690.308 738.97 690.307 738.968 690.308 738.966C692.227 739.178 694.127 739.357 696.009 739.503C696.009 739.505 696.009 739.507 696.009 739.509C695.969 740.06 696.385 740.538 696.936 740.577C699.559 740.765 702.145 740.89 704.695 740.952C705.247 740.966 705.706 740.529 705.72 739.977C705.72 739.975 705.719 739.973 705.719 739.971C707.647 740.006 709.554 740.006 711.439 739.971C711.44 739.973 711.439 739.975 711.439 739.977C711.453 740.529 711.913 740.965 712.465 740.951C715.094 740.885 717.682 740.752 720.229 740.554C720.78 740.511 721.192 740.03 721.149 739.479C721.149 739.478 721.149 739.476 721.148 739.474C723.071 739.31 724.97 739.111 726.846 738.874C726.846 738.876 726.846 738.877 726.847 738.879C726.92 739.426 727.422 739.81 727.97 739.737C730.575 739.389 733.137 738.971 735.653 738.485C736.195 738.381 736.55 737.857 736.445 737.314C736.445 737.312 736.444 737.31 736.443 737.308C738.331 736.929 740.193 736.513 742.03 736.059C742.031 736.061 742.032 736.062 742.032 736.064C742.169 736.599 742.714 736.922 743.249 736.785C745.789 736.136 748.281 735.415 750.726 734.628C751.251 734.459 751.54 733.896 751.371 733.37C751.37 733.368 751.369 733.366 751.368 733.364C753.19 732.761 754.985 732.119 756.753 731.441C756.754 731.444 756.755 731.446 756.756 731.448C756.958 731.962 757.539 732.214 758.053 732.013C760.485 731.058 762.867 730.034 765.199 728.944C765.7 728.711 765.916 728.116 765.683 727.615C765.682 727.613 765.68 727.611 765.679 727.608C767.409 726.782 769.113 725.922 770.788 725.024C770.789 725.026 770.79 725.028 770.791 725.029C771.056 725.514 771.663 725.692 772.147 725.428C774.437 724.177 776.674 722.861 778.859 721.483C779.327 721.189 779.467 720.572 779.173 720.104C779.172 720.102 779.17 720.101 779.169 720.099C780.779 719.066 782.361 718.001 783.914 716.902C783.915 716.904 783.916 716.906 783.917 716.907C784.239 717.356 784.864 717.457 785.312 717.135C787.424 715.617 789.483 714.04 791.49 712.408C791.919 712.06 791.984 711.43 791.636 711.001C791.634 710.999 791.632 710.998 791.631 710.996C793.104 709.78 794.549 708.534 795.966 707.259C795.967 707.26 795.968 707.262 795.97 707.264C796.342 707.671 796.974 707.7 797.382 707.328C799.298 705.578 801.164 703.775 802.978 701.926C803.364 701.531 803.357 700.898 802.963 700.512C802.962 700.51 802.96 700.509 802.959 700.508C804.285 699.136 805.584 697.739 806.855 696.317C806.857 696.319 806.858 696.32 806.859 696.321C807.273 696.687 807.906 696.647 808.271 696.232C809.985 694.29 811.649 692.303 813.264 690.276C813.608 689.844 813.536 689.215 813.104 688.871C813.103 688.87 813.101 688.869 813.1 688.868C814.279 687.369 815.431 685.848 816.557 684.307C816.558 684.308 816.559 684.309 816.561 684.31C817.008 684.633 817.634 684.532 817.957 684.084C819.471 681.984 820.937 679.848 822.354 677.681C822.657 677.219 822.527 676.599 822.064 676.297C822.063 676.296 822.062 676.296 822.061 676.295C823.096 674.692 824.104 673.072 825.088 671.437C825.089 671.437 825.09 671.439 825.092 671.439C825.567 671.721 826.181 671.566 826.463 671.091C827.785 668.865 829.059 666.612 830.287 664.335C830.549 663.849 830.368 663.242 829.882 662.979C829.881 662.979 829.88 662.978 829.879 662.978C830.776 661.293 831.648 659.596 832.495 657.888C832.496 657.888 832.497 657.889 832.498 657.89C832.994 658.132 833.593 657.927 833.836 657.431C834.405 656.269 834.962 655.102 835.508 653.931C836.057 652.753 836.605 651.57 837.153 650.382C837.384 649.88 837.165 649.287 836.664 649.056L836.662 649.055C837.471 647.296 838.278 645.526 839.085 643.746L839.087 643.747C839.59 643.974 840.183 643.751 840.41 643.248C841.48 640.881 842.548 638.495 843.612 636.096C843.822 635.623 843.636 635.074 843.196 634.822L843.103 634.775C843.886 633.004 844.668 631.225 845.448 629.439L845.449 629.44C845.955 629.661 846.545 629.43 846.766 628.924C847.806 626.537 848.842 624.138 849.874 621.729C850.091 621.222 849.857 620.634 849.35 620.416L849.348 620.415C850.111 618.631 850.869 616.84 851.627 615.047C851.628 615.047 851.629 615.048 851.63 615.049C852.139 615.263 852.726 615.025 852.94 614.517C853.954 612.113 854.962 609.702 855.965 607.287C856.176 606.777 855.935 606.192 855.425 605.98C855.424 605.98 855.423 605.979 855.422 605.979C856.166 604.184 856.907 602.387 857.644 600.589C857.645 600.589 857.646 600.589 857.646 600.59C858.158 600.799 858.741 600.554 858.95 600.043C859.94 597.624 860.923 595.204 861.898 592.783C862.105 592.271 861.857 591.688 861.345 591.481C861.343 591.481 861.342 591.48 861.341 591.479C862.067 589.675 862.79 587.87 863.508 586.067C863.509 586.068 863.51 586.069 863.512 586.069C864.025 586.273 864.606 586.023 864.811 585.51C865.777 583.078 866.736 580.648 867.687 578.224C867.888 577.709 867.634 577.129 867.12 576.928L867.118 576.927C867.829 575.111 868.535 573.299 869.235 571.491L869.237 571.492C869.752 571.691 870.331 571.435 870.53 570.92C871.477 568.473 872.414 566.033 873.341 563.604C873.538 563.089 873.279 562.51 872.763 562.313C872.761 562.313 872.76 562.313 872.759 562.312C873.453 560.489 874.143 558.671 874.825 556.86C874.826 556.861 874.827 556.862 874.828 556.862C875.345 557.057 875.922 556.796 876.116 556.279C877.042 553.82 877.956 551.374 878.857 548.945C879.049 548.428 878.785 547.852 878.268 547.66L878.266 547.659C878.946 545.823 879.619 543.997 880.285 542.182L880.287 542.183C880.806 542.372 881.379 542.105 881.569 541.587C882.476 539.111 883.368 536.654 884.246 534.222C884.433 533.702 884.165 533.13 883.646 532.942C883.645 532.942 883.644 532.942 883.643 532.941C884.306 531.101 884.96 529.274 885.605 527.462L885.607 527.463C886.128 527.648 886.7 527.376 886.885 526.855C887.772 524.358 888.643 521.89 889.495 519.455C889.677 518.934 889.403 518.364 888.882 518.182C888.88 518.181 888.879 518.18 888.878 518.18C889.526 516.325 890.163 514.489 890.789 512.675C890.79 512.675 890.791 512.676 890.792 512.677C891.314 512.856 891.883 512.579 892.062 512.057C892.928 509.541 893.772 507.067 894.593 504.638C894.77 504.114 894.489 503.547 893.966 503.37C893.965 503.37 893.964 503.369 893.963 503.369C894.594 501.498 895.21 499.655 895.812 497.841C895.814 497.841 895.814 497.842 895.815 497.843C896.34 498.016 896.906 497.732 897.079 497.208C897.922 494.662 898.736 492.175 899.52 489.753C899.689 489.228 899.401 488.664 898.876 488.494C898.875 488.494 898.873 488.494 898.872 488.493C899.481 486.604 900.073 484.756 900.644 482.95L900.646 482.951C901.172 483.117 901.734 482.825 901.899 482.298C902.298 481.031 902.687 479.786 903.065 478.564C903.44 477.356 903.837 476.133 904.259 474.895C904.436 474.373 904.158 473.805 903.638 473.626C904.258 471.846 904.93 470.038 905.657 468.203C906.168 468.407 906.748 468.161 906.955 467.65C907.894 465.332 908.925 462.972 910.059 460.573C910.294 460.075 910.082 459.481 909.586 459.243C910.406 457.541 911.277 455.82 912.205 454.082C912.69 454.343 913.295 454.164 913.558 453.68C914.755 451.475 916.045 449.243 917.435 446.986C917.723 446.517 917.578 445.903 917.111 445.612C918.113 444.01 919.164 442.395 920.27 440.77C920.724 441.081 921.344 440.966 921.657 440.513C923.084 438.444 924.599 436.357 926.207 434.255C926.542 433.817 926.459 433.191 926.022 432.855C927.183 431.357 928.393 429.853 929.65 428.341C930.073 428.694 930.701 428.639 931.056 428.218C932.678 426.29 934.383 424.35 936.174 422.402C936.547 421.997 936.521 421.366 936.117 420.992C937.408 419.603 938.743 418.211 940.122 416.813C940.513 417.2 941.143 417.198 941.532 416.809C943.314 415.022 945.171 413.23 947.106 411.432C947.51 411.057 947.533 410.426 947.16 410.021C948.555 408.738 949.989 407.45 951.465 406.162C951.826 406.578 952.457 406.623 952.874 406.263C954.786 404.608 956.767 402.951 958.818 401.291C959.246 400.945 959.314 400.317 958.97 399.888C960.453 398.698 961.971 397.505 963.527 396.313C963.862 396.752 964.488 396.838 964.928 396.504C965.949 395.728 966.987 394.952 968.041 394.176L968.092 394.139L968.138 394.095C969.112 393.167 970.091 392.229 971.072 391.282C971.47 390.899 971.481 390.266 971.098 389.868L971.096 389.866C972.549 388.459 974.01 387.033 975.474 385.589L975.475 385.59C975.863 385.982 976.496 385.985 976.889 385.597C978.801 383.703 980.718 381.781 982.635 379.836C983.022 379.443 983.017 378.809 982.624 378.422L982.622 378.42C984.048 376.968 985.473 375.505 986.895 374.03L986.896 374.031C987.294 374.414 987.927 374.401 988.31 374.003C990.185 372.051 992.054 370.082 993.91 368.102C994.288 367.699 994.267 367.065 993.864 366.688L993.862 366.686C995.257 365.193 996.645 363.694 998.021 362.19L998.023 362.192C998.431 362.564 999.063 362.535 999.436 362.128C1001.27 360.117 1003.09 358.099 1004.88 356.08C1005.25 355.667 1005.21 355.035 1004.8 354.668L1004.8 354.667C1006.16 353.131 1007.5 351.594 1008.83 350.06L1008.83 350.062C1009.25 350.422 1009.88 350.374 1010.24 349.956C1012.03 347.88 1013.78 345.808 1015.5 343.747C1015.86 343.323 1015.8 342.692 1015.37 342.339L1015.37 342.337C1016.69 340.748 1017.98 339.167 1019.25 337.595L1019.25 337.596C1019.68 337.941 1020.31 337.871 1020.66 337.44C1022.39 335.283 1024.07 333.143 1025.69 331.029C1026.02 330.591 1025.94 329.964 1025.5 329.628C1025.5 329.627 1025.5 329.627 1025.5 329.626C1026.76 327.972 1027.98 326.334 1029.16 324.717L1029.17 324.719C1029.61 325.043 1030.24 324.943 1030.56 324.496C1032.21 322.226 1033.77 319.995 1035.24 317.814C1035.55 317.357 1035.43 316.735 1034.97 316.427C1034.97 316.426 1034.97 316.425 1034.97 316.425C1036.13 314.676 1037.24 312.96 1038.28 311.284C1038.28 311.285 1038.28 311.286 1038.28 311.287C1038.75 311.575 1039.37 311.426 1039.66 310.954C1041.16 308.487 1042.52 306.104 1043.71 303.82C1043.96 303.331 1043.77 302.727 1043.28 302.472C1043.28 302.47 1043.28 302.469 1043.28 302.468C1044.26 300.531 1045.12 298.674 1045.83 296.906C1045.84 296.908 1045.84 296.91 1045.84 296.911C1046.36 297.109 1046.94 296.852 1047.14 296.337C1047.64 295.023 1048.07 293.754 1048.41 292.536C1049.05 291.419 1049.66 290.298 1050.24 289.176C1050.5 288.686 1050.3 288.082 1049.81 287.827C1049.81 287.826 1049.81 287.825 1049.81 287.824C1050.7 286.06 1051.52 284.299 1052.25 282.558C1052.26 282.559 1052.26 282.56 1052.26 282.562C1052.77 282.768 1053.36 282.521 1053.56 282.009C1054.6 279.439 1055.44 276.906 1056.04 274.46C1056.16 273.923 1055.83 273.383 1055.3 273.253C1055.29 273.252 1055.29 273.251 1055.28 273.25C1055.71 271.249 1055.96 269.322 1056 267.498C1056 267.498 1056.01 267.499 1056.02 267.499C1056.57 267.484 1057.01 267.025 1056.99 266.473C1056.91 263.551 1056.27 260.848 1054.88 258.521C1054.6 258.047 1053.99 257.89 1053.51 258.172C1053.5 258.179 1053.49 258.187 1053.48 258.194C1052.42 256.699 1050.99 255.415 1049.16 254.385C1049.16 254.376 1049.17 254.368 1049.17 254.358C1049.41 253.861 1049.21 253.263 1048.71 253.022C1046.56 251.983 1043.98 251.256 1040.93 250.87C1040.38 250.801 1039.88 251.189 1039.81 251.737C1039.81 251.742 1039.81 251.747 1039.81 251.752C1038.04 251.578 1036.11 251.513 1034 251.568C1034 251.565 1034 251.562 1034 251.56C1033.98 251.008 1033.51 250.58 1032.96 250.604C1030.55 250.706 1027.94 250.955 1025.11 251.36C1024.56 251.439 1024.18 251.945 1024.26 252.492C1024.26 252.494 1024.26 252.495 1024.26 252.497C1022.45 252.776 1020.54 253.118 1018.54 253.527C1018.54 253.526 1018.54 253.524 1018.54 253.522C1018.42 252.982 1017.89 252.638 1017.35 252.752C1016.1 253.017 1014.82 253.306 1013.5 253.622L1013.32 253.665L1013.16 253.77C1012.03 254.543 1010.94 255.29 1009.89 256.015C1009.44 256.328 1009.32 256.951 1009.64 257.406L1009.64 257.408C1007.93 258.585 1006.32 259.699 1004.8 260.764L1004.8 260.763C1004.48 260.311 1003.86 260.202 1003.41 260.519C1001.07 262.155 998.941 263.672 996.958 265.112C996.511 265.437 996.412 266.062 996.736 266.509L996.738 266.511C995.067 267.731 993.503 268.898 992.01 270.037C992.009 270.036 992.009 270.035 992.008 270.034C991.671 269.597 991.042 269.515 990.604 269.852C988.432 271.523 986.403 273.146 984.41 274.806C983.986 275.159 983.928 275.79 984.281 276.215C984.282 276.216 984.283 276.217 984.284 276.218C982.8 277.466 981.329 278.739 979.824 280.075C979.823 280.074 979.823 280.073 979.822 280.072C979.454 279.661 978.822 279.626 978.41 279.994C976.554 281.656 974.638 283.418 972.581 285.345C972.178 285.722 972.158 286.355 972.535 286.758C971.18 288.032 969.762 289.38 968.256 290.818L968.255 290.817C967.873 290.418 967.24 290.404 966.841 290.785C965.074 292.475 963.188 294.289 961.147 296.253C960.75 296.636 960.738 297.268 961.12 297.666C959.771 298.966 958.354 300.33 956.861 301.768C956.478 301.371 955.846 301.36 955.448 301.742C954.54 302.617 953.604 303.517 952.638 304.446C951.547 305.271 950.502 306.062 949.498 306.823C949.058 307.157 948.971 307.784 949.305 308.224C947.614 309.507 946.042 310.706 944.567 311.841V311.84C944.23 311.403 943.601 311.323 943.164 311.66C940.87 313.432 938.809 315.057 936.894 316.616C936.466 316.965 936.401 317.594 936.749 318.022L936.75 318.024C935.156 319.335 933.663 320.607 932.213 321.892C932.212 321.89 932.211 321.889 932.21 321.888C931.841 321.477 931.208 321.444 930.798 321.812C928.841 323.571 926.951 325.37 924.99 327.34C924.601 327.731 924.602 328.364 924.993 328.754C924.994 328.755 924.995 328.756 924.996 328.757C923.677 330.099 922.318 331.525 920.881 333.074L920.88 333.073C920.474 332.699 919.841 332.725 919.467 333.131C917.814 334.926 916.053 336.886 914.127 339.063C913.761 339.477 913.8 340.109 914.214 340.475C912.978 341.876 911.675 343.369 910.287 344.965L910.286 344.964C909.869 344.602 909.237 344.647 908.875 345.063C908.059 346.003 907.215 346.978 906.34 347.99C905.146 348.79 904.046 349.59 903.019 350.384C902.582 350.722 902.501 351.349 902.839 351.786C902.841 351.789 902.843 351.791 902.845 351.793C901.08 353.202 899.529 354.59 898.07 355.931L898.069 355.93C897.695 355.524 897.062 355.499 896.656 355.874C894.527 357.842 892.605 359.64 890.443 361.23C890.003 361.555 889.906 362.171 890.222 362.614C888.582 363.749 886.789 364.771 884.691 365.644C884.49 365.138 883.919 364.884 883.408 365.078C882.599 365.385 881.742 365.667 880.829 365.93C880.878 365.258 880.969 364.491 881.108 363.628C881.196 363.087 880.832 362.577 880.294 362.483C880.59 360.898 881.02 359.068 881.597 356.996C882.125 357.146 882.676 356.841 882.829 356.312C883.452 354.162 884.227 351.762 885.167 349.114C885.351 348.595 885.081 348.025 884.562 347.839C885.166 346.172 885.832 344.413 886.563 342.563C887.075 342.767 887.655 342.518 887.86 342.007C888.744 339.801 889.72 337.468 890.792 335.01C891.012 334.504 890.782 333.916 890.277 333.694C891.006 332.038 891.778 330.327 892.594 328.562C893.094 328.793 893.687 328.577 893.92 328.077C894.946 325.873 896.042 323.585 897.207 321.213C897.45 320.718 897.246 320.119 896.752 319.875C897.563 318.236 898.405 316.557 899.283 314.841C899.774 315.093 900.376 314.9 900.629 314.409C901.755 312.219 902.937 309.966 904.175 307.652C904.435 307.166 904.252 306.561 903.767 306.3C904.635 304.685 905.53 303.04 906.453 301.366C906.936 301.633 907.544 301.459 907.812 300.977C909.012 298.811 910.258 296.596 911.553 294.333C911.827 293.854 911.661 293.242 911.183 292.968C912.1 291.37 913.041 289.749 914.006 288.104C914.482 288.383 915.094 288.225 915.374 287.749C916.638 285.602 917.941 283.415 919.287 281.188C919.572 280.716 919.422 280.101 918.95 279.815C919.906 278.239 920.883 276.644 921.88 275.028C922.349 275.318 922.965 275.172 923.256 274.703C923.922 273.628 924.597 272.544 925.281 271.452L925.298 271.425L925.313 271.397C925.975 270.175 926.626 268.938 927.266 267.69C927.518 267.199 927.323 266.597 926.832 266.345C926.831 266.344 926.829 266.343 926.828 266.343C927.777 264.468 928.7 262.564 929.601 260.64C929.603 260.641 929.604 260.643 929.606 260.644C930.108 260.875 930.702 260.656 930.934 260.155C932.1 257.633 933.226 255.074 934.312 252.487C934.526 251.978 934.287 251.392 933.777 251.178C933.776 251.177 933.774 251.176 933.772 251.176C934.582 249.227 935.37 247.265 936.135 245.29C936.136 245.29 936.137 245.292 936.138 245.292C936.653 245.49 937.232 245.232 937.43 244.716C938.428 242.111 939.389 239.488 940.313 236.857C940.496 236.337 940.222 235.766 939.701 235.583C939.7 235.583 939.699 235.582 939.697 235.581C940.393 233.581 941.067 231.576 941.721 229.571C941.722 229.572 941.723 229.573 941.725 229.573C942.25 229.743 942.814 229.454 942.983 228.929C943.845 226.261 944.669 223.593 945.459 220.936C945.616 220.406 945.315 219.85 944.785 219.692C944.784 219.692 944.783 219.692 944.782 219.691C945.383 217.65 945.963 215.615 946.522 213.591C946.523 213.591 946.524 213.592 946.525 213.592C947.058 213.738 947.609 213.424 947.755 212.892C948.499 210.173 949.206 207.476 949.879 204.81C950.014 204.274 949.69 203.731 949.154 203.596C949.153 203.595 949.152 203.595 949.151 203.595C949.67 201.517 950.168 199.46 950.645 197.427C950.646 197.427 950.646 197.428 950.647 197.428C951.185 197.553 951.723 197.217 951.848 196.68C952.492 193.905 953.097 191.179 953.664 188.514C953.779 187.973 953.435 187.442 952.895 187.327C952.894 187.327 952.893 187.326 952.892 187.326C953.337 185.211 953.76 183.137 954.158 181.108L954.16 181.109C954.702 181.215 955.228 180.861 955.333 180.318C955.885 177.478 956.391 174.731 956.854 172.098C956.95 171.554 956.587 171.035 956.043 170.939L956.041 170.938C956.417 168.773 956.76 166.687 957.077 164.691C957.079 164.692 957.08 164.692 957.082 164.692C957.628 164.778 958.139 164.404 958.225 163.858C958.692 160.871 959.095 158.096 959.436 155.568C959.509 155.021 959.125 154.517 958.578 154.443C958.577 154.443 958.576 154.443 958.574 154.442C958.883 152.104 959.136 149.995 959.338 148.149C959.34 148.15 959.341 148.15 959.343 148.15C959.892 148.208 960.384 147.809 960.441 147.26C960.611 145.641 960.737 144.247 960.822 143.104C960.938 141.556 960.938 140.081 960.829 138.681C960.786 138.13 960.305 137.719 959.755 137.762C959.747 137.762 959.74 137.763 959.732 137.764C959.455 135.452 958.857 133.383 957.981 131.547C957.991 131.542 958.001 131.539 958.01 131.534C958.494 131.268 958.671 130.661 958.405 130.177C956.932 127.492 954.868 125.325 952.368 123.659C951.909 123.353 951.288 123.478 950.981 123.938C950.977 123.945 950.972 123.952 950.967 123.96C949.173 122.89 947.163 122.063 944.987 121.474C944.989 121.468 944.992 121.463 944.993 121.457C945.119 120.919 944.785 120.381 944.247 120.255C941.54 119.622 938.619 119.33 935.574 119.36C935.022 119.366 934.58 119.818 934.585 120.37C934.585 120.374 934.585 120.379 934.585 120.383C932.486 120.453 930.324 120.675 928.129 121.047C928.128 121.044 928.129 121.04 928.128 121.037C928.025 120.495 927.502 120.138 926.96 120.24C924.204 120.761 921.406 121.51 918.618 122.477C918.096 122.658 917.82 123.227 918.001 123.749C918.002 123.752 918.003 123.754 918.004 123.757C915.997 124.49 913.997 125.338 912.025 126.299C912.024 126.296 912.024 126.293 912.022 126.291C911.773 125.798 911.171 125.601 910.679 125.851C908.142 127.136 905.655 128.607 903.261 130.256C902.806 130.569 902.691 131.193 903.004 131.647C903.005 131.65 903.007 131.652 903.009 131.654C901.255 132.904 899.556 134.253 897.93 135.698C897.927 135.696 897.926 135.693 897.924 135.69C897.55 135.284 896.917 135.257 896.511 135.631C894.402 137.569 892.419 139.672 890.603 141.934C890.257 142.364 890.325 142.993 890.756 143.339C890.759 143.341 890.762 143.343 890.765 143.345C889.447 145.049 888.226 146.841 887.117 148.719C887.114 148.717 887.111 148.715 887.107 148.713C886.627 148.442 886.017 148.611 885.745 149.092C885.039 150.343 884.381 151.631 883.777 152.954C883.292 154.019 882.737 155.257 882.123 156.65C881.9 157.156 882.13 157.746 882.635 157.969H882.637C881.9 159.651 881.086 161.537 880.211 163.597H880.21C879.701 163.381 879.115 163.619 878.899 164.128C877.922 166.437 876.874 168.949 875.774 171.628C875.565 172.139 875.809 172.723 876.319 172.933H876.32C875.576 174.753 874.809 176.647 874.025 178.603H874.024C873.511 178.398 872.929 178.648 872.725 179.161C871.753 181.595 870.757 184.122 869.749 186.718C869.549 187.232 869.805 187.812 870.319 188.012H870.32C869.596 189.884 868.867 191.792 868.136 193.727L868.134 193.726C867.617 193.531 867.04 193.793 866.846 194.31C865.903 196.812 864.958 199.358 864.021 201.931C863.831 202.45 864.099 203.024 864.618 203.213H864.62C863.928 205.121 863.239 207.042 862.559 208.971H862.558C862.036 208.788 861.466 209.062 861.283 209.583C860.386 212.141 859.503 214.71 858.644 217.273C858.468 217.797 858.75 218.363 859.273 218.539H859.274C858.627 220.483 857.995 222.423 857.379 224.352C857.378 224.351 857.377 224.351 857.376 224.351C856.85 224.184 856.287 224.476 856.12 225.002C855.289 227.623 854.491 230.223 853.734 232.784C853.578 233.314 853.881 233.87 854.41 234.026H854.412C853.831 236.016 853.275 237.981 852.751 239.912H852.75C852.217 239.769 851.668 240.086 851.525 240.619C851.17 241.948 850.829 243.262 850.505 244.556C850.163 245.919 849.819 247.26 849.475 248.579C849.335 249.113 849.655 249.658 850.188 249.799C849.638 251.882 849.084 253.91 848.53 255.883C848 255.735 847.449 256.042 847.299 256.572C846.519 259.322 845.736 261.965 844.952 264.502C844.789 265.029 845.084 265.587 845.609 265.751C844.964 267.817 844.32 269.813 843.677 271.741C843.154 271.566 842.587 271.848 842.411 272.37C841.487 275.108 840.567 277.706 839.656 280.169C839.465 280.685 839.729 281.259 840.244 281.452C839.478 283.5 838.719 285.454 837.968 287.316C837.457 287.11 836.875 287.355 836.667 287.865C835.553 290.594 834.461 293.121 833.401 295.456C833.174 295.958 833.395 296.548 833.896 296.777C832.958 298.815 832.046 300.703 831.167 302.45C830.676 302.203 830.077 302.398 829.826 302.888C828.409 305.662 827.083 308.059 825.877 310.117C825.599 310.592 825.757 311.202 826.229 311.482C824.946 313.633 823.808 315.388 822.855 316.793C822.402 316.484 821.784 316.598 821.471 317.05C820.887 317.893 820.389 318.584 819.987 319.139C819.592 319.684 819.27 320.123 819.062 320.435L819.057 320.444L819.05 320.455C818.805 320.843 818.517 321.561 818.218 322.373C817.904 323.226 817.536 324.303 817.137 325.491C816.961 326.015 817.243 326.582 817.767 326.758H817.769C816.931 329.268 815.969 332.172 815.054 334.625C814.541 334.431 813.966 334.686 813.768 335.198C813.299 336.405 812.861 337.427 812.475 338.164C812.281 338.534 812.114 338.805 811.979 338.981C811.911 339.071 811.867 339.114 811.85 339.131C811.513 339.276 811.252 339.524 811.067 339.733C810.852 339.977 810.648 340.275 810.455 340.592C810.069 341.228 809.665 342.05 809.261 342.943C809.033 343.447 809.257 344.039 809.76 344.267C809.763 344.268 809.766 344.269 809.77 344.271C809.007 346.028 808.198 348.05 807.427 349.769C806.931 349.541 806.343 349.752 806.107 350.246C805.661 351.185 805.261 351.913 804.925 352.364C804.84 352.479 804.769 352.559 804.716 352.614C804.021 352.432 803.27 352.513 802.642 352.626C802.098 352.724 801.737 353.245 801.835 353.788C801.837 353.8 801.84 353.812 801.843 353.823C801.284 353.96 800.715 354.109 800.178 354.213C800.113 353.707 799.675 353.324 799.155 353.341C798.884 353.349 798.712 353.317 798.608 353.276C798.526 353.244 798.474 353.202 798.427 353.124C798.17 352.7 797.879 351.966 797.595 351.016C797.438 350.493 796.892 350.194 796.369 350.339C796.121 349.376 795.904 348.337 795.738 347.35C796.277 347.267 796.651 346.768 796.577 346.227C796.444 345.257 796.381 344.43 796.394 343.87L796.395 343.824L796.392 343.778C796.337 342.986 796.293 341.73 796.274 340.022C796.268 339.472 795.818 339.03 795.268 339.033C795.26 337.449 795.273 335.556 795.315 333.366C795.867 333.377 796.322 332.941 796.335 332.39C796.386 330.133 796.468 327.586 796.589 324.759C796.612 324.208 796.185 323.742 795.635 323.717C795.715 321.931 795.81 320.04 795.923 318.046C796.473 318.077 796.945 317.656 796.978 317.105C797.118 314.708 797.282 312.167 797.476 309.487C797.515 308.938 797.103 308.46 796.554 308.418C796.688 306.598 796.833 304.716 796.994 302.774C797.544 302.82 798.027 302.412 798.073 301.862C798.28 299.415 798.508 296.873 798.761 294.24C798.813 293.692 798.412 293.204 797.864 293.149C798.043 291.312 798.231 289.432 798.434 287.509C798.982 287.567 799.475 287.169 799.533 286.62C799.797 284.154 800.08 281.618 800.385 279.017C800.449 278.468 800.057 277.972 799.509 277.907C799.727 276.068 799.958 274.197 800.197 272.294C800.744 272.361 801.242 271.974 801.312 271.428C801.627 268.947 801.961 266.412 802.314 263.825C802.389 263.278 802.007 262.774 801.46 262.698C801.714 260.86 801.978 258.997 802.252 257.107C802.798 257.186 803.305 256.808 803.385 256.263C803.748 253.779 804.128 251.251 804.527 248.682C804.612 248.136 804.239 247.625 803.694 247.54C803.982 245.701 804.28 243.84 804.587 241.959C805.131 242.048 805.646 241.679 805.735 241.135C805.942 239.881 806.151 238.618 806.366 237.346C806.593 236.002 806.815 234.657 807.029 233.312C807.116 232.766 806.745 232.254 806.199 232.167C806.198 232.167 806.197 232.166 806.196 232.166C806.516 230.137 806.821 228.106 807.113 226.076C807.114 226.076 807.115 226.077 807.116 226.077C807.663 226.155 808.169 225.774 808.247 225.228C808.631 222.523 808.991 219.82 809.329 217.122C809.398 216.574 809.01 216.075 808.462 216.006C808.461 216.006 808.46 216.005 808.459 216.005C808.711 213.962 808.95 211.923 809.178 209.889L809.18 209.89C809.729 209.95 810.223 209.554 810.283 209.005C810.582 206.284 810.859 203.572 811.116 200.874C811.169 200.324 810.766 199.836 810.216 199.783C810.215 199.783 810.214 199.782 810.213 199.782C810.405 197.728 810.586 195.681 810.755 193.645C810.756 193.645 810.757 193.645 810.758 193.646C811.308 193.69 811.791 193.281 811.836 192.73C812.059 189.997 812.261 187.281 812.445 184.589C812.483 184.038 812.067 183.56 811.516 183.522L811.513 183.521C811.651 181.455 811.778 179.402 811.895 177.365L811.896 177.366C812.448 177.397 812.92 176.974 812.951 176.423C813.104 173.674 813.239 170.955 813.355 168.271C813.38 167.719 812.952 167.252 812.4 167.228H812.397C812.485 165.15 812.562 163.095 812.63 161.062L812.632 161.063C813.184 161.081 813.645 160.648 813.663 160.096C813.751 157.331 813.821 154.61 813.875 151.94C813.886 151.388 813.448 150.932 812.896 150.921H812.894C812.933 148.83 812.964 146.772 812.984 144.748L812.985 144.749C813.538 144.754 813.989 144.31 813.994 143.758C814.019 140.963 814.027 138.237 814.021 135.586C814.019 135.034 813.57 134.586 813.018 134.588C813.016 134.588 813.015 134.588 813.014 134.588C813.005 132.486 812.99 130.433 812.965 128.434L812.967 128.435C813.519 128.427 813.96 127.973 813.952 127.421C813.912 124.584 813.857 121.858 813.788 119.253C813.773 118.701 813.314 118.266 812.762 118.28C812.76 118.28 812.759 118.28 812.758 118.28C812.698 116.137 812.633 114.079 812.559 112.113L812.561 112.114C813.112 112.092 813.542 111.628 813.521 111.076C813.404 108.132 813.274 105.404 813.137 102.916C813.108 102.399 812.692 101.996 812.186 101.973H812.081C811.951 99.7056 811.814 97.6533 811.68 95.835C811.681 95.8348 811.683 95.8351 811.685 95.835C812.235 95.7923 812.647 95.3114 812.604 94.7607C812.484 93.2094 812.366 91.8463 812.252 90.6865C812.113 89.2646 811.872 87.876 811.539 86.5244C811.407 85.9884 810.864 85.6608 810.328 85.793C810.322 85.7946 810.315 85.7961 810.309 85.7979C809.744 83.8111 808.971 81.9098 808.017 80.1025C808.022 80.0996 808.028 80.0978 808.033 80.0947C808.513 79.8211 808.68 79.2111 808.406 78.7314C807.027 76.3108 805.334 74.068 803.4 72.0225C803.021 71.6212 802.388 71.603 801.986 71.9824C801.983 71.9857 801.979 71.9888 801.976 71.9922C800.539 70.5513 798.975 69.2142 797.311 67.9893C797.313 67.9859 797.316 67.9829 797.318 67.9795C797.635 67.5272 797.526 66.9039 797.073 66.5869C794.811 65.0017 792.385 63.6151 789.854 62.4453C789.353 62.2137 788.759 62.4316 788.527 62.9326C788.526 62.9359 788.524 62.9391 788.522 62.9424C786.641 62.12 784.705 61.4183 782.74 60.8447C782.741 60.8414 782.743 60.8383 782.744 60.835C782.888 60.3017 782.572 59.7531 782.039 59.6094C779.336 58.8814 776.584 58.3906 773.846 58.1572Z" fill="url(#paint0_radial_1_6833)" fill-opacity="0.05"/>
<defs>
<radialGradient id="paint0_radial_1_6833" cx="0" cy="0" r="1" gradientUnits="userSpaceOnUse" gradientTransform="translate(719.107 445.128) rotate(90) scale(443.001 719.702)">
<stop stop-opacity="0"/>
<stop offset="1"/>
</radialGradient>
</defs>
</svg>
